<svg xmlns="http://www.w3.org/2000/svg" viewBox="0 0 424.93 29.84"><defs><style>.cls-1{fill:#424953;}</style></defs><title>Asset 3</title><g id="Layer_2" data-name="Layer 2"><g id="Layer_1-2" data-name="Layer 1"><path class="cls-1" d="M27.46.62,14.72,29.72,3.16,3A3.5,3.5,0,0,0,.86,1.05L0,.82V.62H3.82A3.92,3.92,0,0,1,7.36,3l8.53,19.71,9.66-22Z"/><path class="cls-1" d="M41.83.62V29.14H37.94V4.6c0-1.68-1-3.12-3.47-3.78V.62Z"/><path class="cls-1" d="M69.8,27.38v1.76H51.5V4.6c0-1.68-1.06-3.12-3.43-3.78V.62h7.32V27.38Z"/><path class="cls-1" d="M96.21,27.38v1.76H77.9V4.6c0-1.68-1.05-3.12-3.42-3.78V.62H81.8V27.38Z"/><path class="cls-1" d="M102.44,29.14,115.22.62l13.09,28.52h-4.72l-2.45-5.38H106.77l-2.42,5.38Zm5-6.86h13L113.86,8Z"/><path class="cls-1" d="M174.31,23.92c-.35.7-3.51,5.92-11.61,5.92C154,29.84,149,23.22,149,15S154,.16,162.7.16c8.22,0,11.34,5.41,11.65,6l-.94,1C164.49-3.62,153.86,3.47,153.86,15c0,10.59,10.59,18.65,19.48,8Z"/><path class="cls-1" d="M208.86,14.8c0,10.32-6.15,14.84-13.75,14.84s-13.75-4.52-13.75-14.84c0-10,6.15-14.8,13.75-14.8S208.86,4.75,208.86,14.8Zm-4.67,0c0-9.15-4.06-13.51-9.08-13.51S186,5.73,186,14.8c0,9.43,4.09,13.52,9.08,13.52S204.19,24.23,204.19,14.8Z"/><path class="cls-1" d="M235.66,27.38v1.76H217.35V4.6c0-1.68-1-3.12-3.43-3.78V.62h7.33V27.38Z"/><path class="cls-1" d="M262.07,27.38v1.76H243.76V4.6c0-1.68-1-3.12-3.43-3.78V.62h7.33V27.38Z"/><path class="cls-1" d="M288.17,27.66v1.48h-18V4.6c0-1.68-1.09-3.12-3.47-3.78V.62h21.43V2.1H274.49V13.4h11.42v1.75H274.49V27.66Z"/><path class="cls-1" d="M320.53,23.92c-.35.7-3.5,5.92-11.6,5.92-8.69,0-13.75-6.62-13.75-14.84S300.24.16,308.93.16c8.21,0,11.33,5.41,11.64,6l-.93,1C310.72-3.62,300.08,3.47,300.08,15c0,10.59,10.6,18.65,19.48,8Z"/><path class="cls-1" d="M348.42,2.38H339V29.14h-4.29V2.38h-9.46V.62h23.17Z"/><path class="cls-1" d="M362.8.62V29.14h-3.9V4.6c0-1.68-1-3.12-3.47-3.78V.62Z"/><path class="cls-1" d="M396.49.62l-12.74,29.1L372.18,3a3.47,3.47,0,0,0-2.29-1.95L369,.82V.62h3.82A3.92,3.92,0,0,1,376.39,3l8.53,19.71,9.66-22Z"/><path class="cls-1" d="M424.93,27.66v1.48H407V4.6c0-1.68-1.09-3.12-3.47-3.78V.62h21.43V2.1H411.25V13.4h11.42v1.75H411.25V27.66Z"/></g></g></svg>