<svg xmlns="http://www.w3.org/2000/svg" viewBox="0 0 73 73">
  <path fill="#ffffff" d="M60.25 21.06h-6.68v-1a.43.43 0 000-.05.14.14 0 000-.06.08.08 0 000-.05l-9.17-9.16H21.88a3.48 3.48 0 00-3.48 3.48v4.68h-6a3.91 3.91 0 00-3.9 3.9v35.63a4.26 4.26 0 004.25 4.26h42.11a4.26 4.26 0 004.26-4.26V30.7a4.25 4.25 0 00-4.26-4.25h-1.29v-3.64h6.68a2.5 2.5 0 012.5 2.5v27.74a2.5 2.5 0 01-2.5 2.5.88.88 0 100 1.75 4.26 4.26 0 004.25-4.25V25.31a4.26 4.26 0 00-4.25-4.25zm-15.84-8.49l6.91 6.91h-4.75a2.16 2.16 0 01-2.16-2.16zm13 18.13v27.73a2.52 2.52 0 01-2.51 2.51H12.75a2.51 2.51 0 01-2.5-2.51V22.37a2.15 2.15 0 012.15-2.15h14.9a4.13 4.13 0 014.14 4.13v3a.88.88 0 00.87.88h22.55a2.51 2.51 0 012.51 2.47zm-24.22-4.25v-2.1a5.89 5.89 0 00-5.89-5.88h-7.58v-4.68a2.16 2.16 0 012.16-2.15h21.2v5.68a3.49 3.49 0 003.49 3.48h5.68v5.65z" />
</svg>