<svg xmlns="http://www.w3.org/2000/svg" viewBox="0 0 73 73">
    <path fill="#ffffff" d="M58.36 113.64v-.06a.64.64 0 000-.07v-.24l-11.4-11.4H19a4.33 4.33 0 00-4.33 4.33v47.34A4.33 4.33 0 0019 157.5h35a4.33 4.33 0 004.33-4.33v-39.53zM47 104.31l8.59 8.59h-5.94a2.69 2.69 0 01-2.65-2.69zm7 51.55H19a2.7 2.7 0 01-2.69-2.69v-47.34a2.7 2.7 0 012.69-2.69h26.32v7.07a4.33 4.33 0 004.33 4.33h7.07v38.63a2.7 2.7 0 01-2.72 2.69z" transform="translate(0 -93)"/>
    <path fill="#ffffff" d="M26.91 26.8l-.82-.82-3.58 3.58-1.52-1.59-.83.83 2.35 2.4 4.4-4.4z"/>
    <path fill="#ffffff" d="M29.85 27.94H48.2v1.31H29.85z"/>
    <path fill="#ffffff" d="M26.91 34.77l-.82-.83-3.58 3.59-1.52-1.59-.83.82 2.35 2.41 4.4-4.4z"/>
    <path fill="#ffffff" d="M29.85 35.9H48.2v1.31H29.85z"/>
    <path fill="#ffffff" d="M26.91 42.58l-.82-.82-3.58 3.58-1.52-1.58-.83.82 2.35 2.4 4.4-4.4z"/>
    <path fill="#ffffff" d="M29.85 43.72H48.2v1.31H29.85z"/>
    <path fill="#ffffff" d="M26.91 50.96l-.82-.82-3.58 3.58-1.52-1.59-.83.82 2.35 2.41 4.4-4.4z"/>
    <path fill="#ffffff" d="M29.85 52.1H48.2v1.31H29.85z"/>
</svg>