<svg version="1.1" xmlns="http://www.w3.org/2000/svg" xmlns:xlink="http://www.w3.org/1999/xlink" style="display: none;">
	<defs>

		<symbol id="icon__profile" viewBox="0 0 90 90">
			<title>Profile</title>
			<path d="M90,45C90,20.2,69.8,0,45,0S0,20.2,0,45C0,58.7,6.2,71,15.8,79.2c0.1,0.1,0.2,0.2,0.5,0.3
            C24.1,86.1,34.1,90,45.1,90c10.8,0,20.8-3.9,28.6-10.2c0.5-0.1,0.8-0.5,1-0.8C84,70.6,90,58.5,90,45z M4.1,45
            C4.1,22.5,22.5,4.1,45,4.1S85.9,22.5,85.9,45c0,11-4.4,21-11.5,28.4c-1.1-5.4-4.6-14.6-15.2-20.5c2.4-3,3.8-6.9,3.8-11
            c0-9.9-8-17.9-17.9-17.9s-17.9,8-17.9,17.9c0,4.1,1.5,7.9,3.8,11c-10.7,6-14.1,15.1-15.1,20.5C8.6,66.1,4.1,56,4.1,45z M31.2,41.9
            c0-7.6,6.2-13.8,13.8-13.8s13.8,6.2,13.8,13.8S52.6,55.7,45,55.7S31.2,49.5,31.2,41.9z M19.5,76.9C19.7,73.6,21.6,62.3,34,56
            c3.1,2.4,6.9,3.8,11,3.8s8-1.5,11.1-3.9c12.3,6.3,14.2,17.3,14.6,20.9c-7,5.6-16,9.1-25.6,9.1C35.4,85.9,26.5,82.5,19.5,76.9z" />

		</symbol>

		<symbol id="icon__arrow" viewBox="0 0 32 32">
			<title>Arrow</title>
			<path d="M14.77,23.795L5.185,14.21c-0.879-0.879-0.879-2.317,0-3.195l0.8-0.801c0.877-0.878,2.316-0.878,3.194,0  l7.315,7.315l7.316-7.315c0.878-0.878,2.317-0.878,3.194,0l0.8,0.801c0.879,0.878,0.879,2.316,0,3.195l-9.587,9.585  c-0.471,0.472-1.104,0.682-1.723,0.647C15.875,24.477,15.243,24.267,14.77,23.795z" />
		</symbol>

		<symbol id="icon__close" viewBox="0 0 48 48">
			<title>Close</title>
			<path class="cls-1" d="M38,12.8,35.2,10,24,21.2,12.8,10,10,12.8,21.2,24,10,35.2,12.8,38,24,26.8,35.2,38,38,35.2,26.8,24Z" />
		</symbol>

		<symbol id="icon__menu" viewBox="0 0 24 24">
			<title>Menu</title>
			<path d="M3,18h18v-2H3V18z M3,13h18v-2H3V13z M3,6v2h18V6H3z" />
		</symbol>

		<symbol id="icon__graph" viewBox="0 0 24 24">
			<title>Graph</title>
			<path d="M23,8c0,1.1-0.9,2-2,2c-0.18,0-0.35-0.02-0.51-0.07l-3.56,3.55C16.98,13.64,17,13.82,17,14c0,1.1-0.9,2-2,2s-2-0.9-2-2
        c0-0.18,0.02-0.36,0.07-0.52l-2.55-2.55C10.36,10.98,10.18,11,10,11s-0.36-0.02-0.52-0.07l-4.55,4.56C4.98,15.65,5,15.82,5,16
        c0,1.1-0.9,2-2,2s-2-0.9-2-2s0.9-2,2-2c0.18,0,0.35,0.02,0.51,0.07l4.56-4.55C8.02,9.36,8,9.18,8,9c0-1.1,0.9-2,2-2s2,0.9,2,2
        c0,0.18-0.02,0.36-0.07,0.52l2.55,2.55C14.64,12.02,14.82,12,15,12s0.36,0.02,0.52,0.07l3.55-3.56C19.02,8.35,19,8.18,19,8
        c0-1.1,0.9-2,2-2S23,6.9,23,8z" />
		</symbol>

		<symbol id="icon__filter" viewBox="0 0 24 24">
			<title>Filter</title>
			<path class="cls-2" d="M20 5h-3V4h-2v1H4v2h11v1h2V7h3V5zM20 11H9v-1H7v1H4v2h3v1h2v-1h11v-2zM20 17h-7v-1h-2v1H4v2h7v1h2v-1h7v-2z" />
		</symbol>

		<symbol id="icon__tags" viewBox="0 0 24 24">
			<title>Tags</title>
			<path d="M5.5 9A1.5 1.5 0 1 0 4 7.5 1.5 1.5 0 0 0 5.5 9m11.91 2.58A2 2 0 0 1 18 13a2 2 0 0 1-.59 1.41l-5 5a2 2 0 0 1-2.83 0l-7-7A2 2 0 0 1 2 11V6a2 2 0 0 1 2-2h5a2 2 0 0 1 1.41.58l7 7m-3.87-5.87l1-1 6.87 6.87a2 2 0 0 1 0 2.83L16 19.79l-1-1L20.75 13z" />
		</symbol>

        <symbol id="icon__plus" viewBox="0 0 32 32">
            <title>Plus Icon</title>
            <path d="M10 15h12v2H10z"/>
            <path d="M15 10h2v12h-2z"/>
            <path d="M16 29a13.01 13.01 0 0 1 0-26 13.01 13.01 0 0 1 0 26Zm0-24a11 11 0 1 0 .01 22.01A11 11 0 0 0 16 5Z"/>
        </symbol>

		<symbol id="icon__edit" viewBox="0 0 48 48">
			<title>Edit</title>
			<path d="M6 34.5V42h7.5l22.13-22.13-7.5-7.5zm35.41-20.41a2 2 0 0 0 0-2.83l-4.67-4.67a2 2 0 0 0-2.83 0l-3.66 3.66 7.5 7.5z" />
		</symbol>

		<symbol id="icon__delete" viewBox="0 0 48 48">
			<title>Delete</title>
			<path d="M12 38a4 4 0 0 0 4 4h16a4 4 0 0 0 4-4V14H12zM38 8h-7l-2-2H19l-2 2h-7v4h28z" />
		</symbol>

		<symbol id="icon__message" viewBox="0 0 24 24">
			<title>Message</title>
			<path d="M4 4h16v12H5.17L4 17.17V4m0-2c-1.1 0-1.99.9-1.99 2L2 22l4-4h14c1.1 0 2-.9 2-2V4c0-1.1-.9-2-2-2H4z" />
			<path d="M6 12h8v2H6v-2zM6 9h12v2H6V9zM6 6h12v2H6V6z" />
		</symbol>

		<symbol id="icon__ellipsis" viewBox="0 0 48 48">
			<title>Ellipsis</title>
			<path class="st1" d="M12,20c-2.2,0-4,1.8-4,4s1.8,4,4,4s4-1.8,4-4S14.2,20,12,20z M36,20c-2.2,0-4,1.8-4,4s1.8,4,4,4s4-1.8,4-4 S38.2,20,36,20z M24,20c-2.2,0-4,1.8-4,4s1.8,4,4,4s4-1.8,4-4S26.2,20,24,20z" />
		</symbol>

		<symbol id="icon__left-arrow" viewBox="0 0 31.494 31.494">
			<title>Left Arrow</title>
			<path class="st1" d="M10.273 5.009a1.112 1.112 0 0 1 1.587 0 1.12 1.12 0 0 1 0 1.571l-8.047 8.047h26.554c.619 0 1.127.492 1.127 1.111s-.508 1.127-1.127 1.127H3.813l8.047 8.032c.429.444.429 1.159 0 1.587a1.112 1.112 0 0 1-1.587 0L.321 16.532a1.12 1.12 0 0 1 0-1.571l9.952-9.952z" />
		</symbol>

        <symbol id="icon__down-arrow" viewBox="0 0 24 24">
            <title>Down Arrow</title>
            <path d="M15.3 10.3c.4-.3 1.1-.2 1.4.2.3.4.3.8 0 1.2l-4 4c-.4.4-1 .4-1.4 0l-4-4c-.3-.4-.2-1.1.2-1.4.4-.3.8-.3 1.2 0l3.3 3.3 3.3-3.3z" />
        </symbol>

        <symbol id="icon__view" viewBox="0 0 511.999 511.999">
          <title>View</title>
          <path d="M508.745 246.041c-4.574-6.257-113.557-153.206-252.748-153.206S7.818 239.784 3.249 246.035a16.896 16.896 0 0 0 0 19.923c4.569 6.257 113.557 153.206 252.748 153.206s248.174-146.95 252.748-153.201a16.875 16.875 0 0 0 0-19.922zM255.997 385.406c-102.529 0-191.33-97.533-217.617-129.418 26.253-31.913 114.868-129.395 217.617-129.395 102.524 0 191.319 97.516 217.617 129.418-26.253 31.912-114.868 129.395-217.617 129.395z"/>
          <path d="M255.997 154.725c-55.842 0-101.275 45.433-101.275 101.275s45.433 101.275 101.275 101.275S357.272 311.842 357.272 256s-45.433-101.275-101.275-101.275zm0 168.791c-37.23 0-67.516-30.287-67.516-67.516s30.287-67.516 67.516-67.516 67.516 30.287 67.516 67.516-30.286 67.516-67.516 67.516z"/>
        </symbol>

        <symbol id="icon__link" viewBox="0 0 73 73">
            <title>Link</title>
            <path d="M44.85 15l-9.31 9.3c-3.56 3.56-1.74 6.23-.73 7.26a1.17 1.17 0 101.69-1.66c-.5-.5-1.65-1.64.7-4l9.3-9.3a4.38 4.38 0 016.19-.22l3.94 3.94a4.38 4.38 0 01-.22 6.18l-9.3 9.31c-2.35 2.34-3.49 1.2-4 .7a1.17 1.17 0 10-1.61 1.69c1 1 3.7 2.82 7.25-.73l9.31-9.31a6.71 6.71 0 00.21-9.48l-3.93-3.94a6.73 6.73 0 00-9.49.26z"/>
            <path d="M36.61 41.35a1.17 1.17 0 00-.11 1.75c.49.49 1.64 1.64-.74 4l-9.4 9.41a4.17 4.17 0 01-6.05.09l-3.93-3.94a4.18 4.18 0 01.08-6.05l9.4-9.41c2.38-2.37 3.53-1.22 4-.73a1.17 1.17 0 101.61-1.69c-1-1-3.7-2.82-7.29.77L14.8 45a6.59 6.59 0 00-.07 9.37l3.94 3.94a6.55 6.55 0 009.33-.13l9.4-9.41c3.59-3.59 1.77-6.26.77-7.28a1.19 1.19 0 00-1.56-.14z"/>
            <path d="M26.6 46.4a1.18 1.18 0 001.65 0L46.4 28.25a1.18 1.18 0 000-1.65 1.16 1.16 0 00-1.65 0L26.6 44.75a1.16 1.16 0 000 1.65z"/>
        </symbol>

        <symbol id="icon__save" viewBox="0 0 486 486">
            <title>Save</title>
            <path d="M473.7,485.75c6.8,0,12.3-5.5,12.3-12.3v-359.8c0-3.6-1.6-7-4.3-9.3L363,2.85c-0.2-0.2-0.4-0.3-0.6-0.4 c-0.3-0.2-0.5-0.4-0.8-0.6c-0.4-0.2-0.7-0.4-1.1-0.6c-0.3-0.1-0.6-0.3-0.9-0.4c-0.4-0.2-0.9-0.3-1.3-0.4c-0.3-0.1-0.6-0.2-0.9-0.2 c-0.8-0.1-1.5-0.2-2.3-0.2H12.3C5.5,0.05,0,5.55,0,12.35v461.3c0,6.8,5.5,12.3,12.3,12.3h461.4V485.75z M384.5,461.25h-283v-184.1 c0-3.7,3-6.6,6.6-6.6h269.8c3.7,0,6.6,3,6.6,6.6V461.25z M161.8,24.45h180.9v127.8c0,0.8-0.6,1.4-1.4,1.4h-178 c-0.8,0-1.4-0.7-1.4-1.4V24.45H161.8z M24.6,24.45h112.8v127.8c0,14.3,11.6,25.9,25.9,25.9h178c14.3,0,25.9-11.6,25.9-25.9V38.75 l94.2,80.6v341.9H409v-184.1c0-17.2-14-31.1-31.1-31.1H108.1c-17.2,0-31.1,14-31.1,31.1v184.2H24.6V24.45z"/>
            <path d="M227.4,77.65h53.8v32.6c0,6.8,5.5,12.3,12.3,12.3s12.3-5.5,12.3-12.3v-44.8c0-6.8-5.5-12.3-12.3-12.3h-66.1 c-6.8,0-12.3,5.5-12.3,12.3S220.7,77.65,227.4,77.65z"/>
            <path d="M304.5,322.85h-123c-6.8,0-12.3,5.5-12.3,12.3s5.5,12.3,12.3,12.3h123c6.8,0,12.3-5.5,12.3-12.3 S311.3,322.85,304.5,322.85z"/>
            <path d="M304.5,387.75h-123c-6.8,0-12.3,5.5-12.3,12.3s5.5,12.3,12.3,12.3h123c6.8,0,12.3-5.5,12.3-12.3 S311.3,387.75,304.5,387.75z"/>
        </symbol>

        <symbol id="icon__tick" viewBox="0 0 24 24">
            <title>Tick</title>
            <path d="M19.8198 6.19526C20.0601 6.45561 20.0601 6.87772 19.8198 7.13807L9.9736 17.8047C9.73328 18.0651 9.34364 18.0651 9.10332 17.8047L4.18024 12.4714C3.93992 12.2111 3.93992 11.7889 4.18024 11.5286C4.42056 11.2682 4.8102 11.2682 5.05053 11.5286L9.53846 16.3905L18.9495 6.19526C19.1898 5.93491 19.5794 5.93491 19.8198 6.19526Z"/>
        </symbol>

        <!--<symbol id="icon__" viewBox="0 0 24 24">
			<title></title>
		</symbol>-->

	</defs>
</svg>
