<svg xmlns="http://www.w3.org/2000/svg" viewBox="0 0 73 73">
    <path fill="#ffffff" d="M40.45 29.44l-4.31 4.31c-1.64 1.64-.78 2.9-.31 3.38a.55.55 0 00.74.07.54.54 0 000-.81c-.23-.24-.77-.78.32-1.86l4.31-4.31a2.05 2.05 0 012.89-.08L46 32a2.05 2.05 0 01-.08 2.89l-4.33 4.31c-1.08 1.08-1.62.54-1.86.31a.53.53 0 00-.81.05.54.54 0 00.07.73c.48.47 1.74 1.34 3.39-.31l4.31-4.31a3.15 3.15 0 00.06-4.43l-1.86-1.86a3.14 3.14 0 00-4.44.06z"/>
    <path fill="#ffffff" d="M36.71 41.74a.54.54 0 000 .81c.23.24.77.78-.33 1.88L32 48.79a1.94 1.94 0 01-2.82 0L27.3 47a2 2 0 010-2.83l4.35-4.36c1.11-1.1 1.65-.56 1.88-.32a.55.55 0 00.82 0 .56.56 0 00-.08-.74c-.47-.47-1.73-1.33-3.4.33l-4.35 4.36a3.08 3.08 0 000 4.38l1.86 1.85a3.05 3.05 0 004.36 0l4.36-4.36c1.66-1.66.8-2.92.33-3.4a.56.56 0 00-.72-.17z"/>
    <path fill="#ffffff" d="M32.05 44.06a.55.55 0 00.77 0l8.41-8.4a.55.55 0 00-.78-.78l-8.4 8.41a.55.55 0 000 .77z"/>
    <path fill="#ffffff" d="M58.36 20.64v-.06a.64.64 0 000-.07v-.24L46.72 8.74v-.05H19a4.33 4.33 0 00-4.33 4.33v47.15A4.33 4.33 0 0019 64.5h35a4.33 4.33 0 004.33-4.33V20.64zM47 11.31l8.59 8.59h-5.94A2.69 2.69 0 0147 17.21zm7 51.55H19a2.7 2.7 0 01-2.69-2.69V12.83A2.7 2.7 0 0119 10.14h26.32v7.07a4.33 4.33 0 004.33 4.33h7.07v38.63A2.7 2.7 0 0154 62.86z"/>
</svg>