<svg xmlns="http://www.w3.org/2000/svg" viewBox="0 0 73 73">
    <path fill="#ffffff" d="M44.85 15l-9.31 9.3c-3.56 3.56-1.74 6.23-.73 7.26a1.17 1.17 0 101.69-1.66c-.5-.5-1.65-1.64.7-4l9.3-9.3a4.38 4.38 0 016.19-.22l3.94 3.94a4.38 4.38 0 01-.22 6.18l-9.3 9.31c-2.35 2.34-3.49 1.2-4 .7a1.17 1.17 0 10-1.61 1.69c1 1 3.7 2.82 7.25-.73l9.31-9.31a6.71 6.71 0 00.21-9.48l-3.93-3.94a6.73 6.73 0 00-9.49.26z"/>
    <path fill="#ffffff" d="M36.61 41.35a1.17 1.17 0 00-.11 1.75c.49.49 1.64 1.64-.74 4l-9.4 9.41a4.17 4.17 0 01-6.05.09l-3.93-3.94a4.18 4.18 0 01.08-6.05l9.4-9.41c2.38-2.37 3.53-1.22 4-.73a1.17 1.17 0 101.61-1.69c-1-1-3.7-2.82-7.29.77L14.8 45a6.59 6.59 0 00-.07 9.37l3.94 3.94a6.55 6.55 0 009.33-.13l9.4-9.41c3.59-3.59 1.77-6.26.77-7.28a1.19 1.19 0 00-1.56-.14z"/>
    <path fill="#ffffff" d="M26.6 46.4a1.18 1.18 0 001.65 0L46.4 28.25a1.18 1.18 0 000-1.65 1.16 1.16 0 00-1.65 0L26.6 44.75a1.16 1.16 0 000 1.65z"/>
</svg>