<svg xmlns="http://www.w3.org/2000/svg" viewBox="0 0 73 73">
    <path fill="#ffffff" d="M54.86 25.06H33.19V23a5.91 5.91 0 00-5.89-5.88H12.4A3.91 3.91 0 008.5 21v36.05a4.26 4.26 0 004.25 4.25h42.11a4.26 4.26 0 004.26-4.25V29.31a4.26 4.26 0 00-4.26-4.25zm2.51 32a2.51 2.51 0 01-2.51 2.5H12.75a2.5 2.5 0 01-2.5-2.5V21a2.15 2.15 0 012.15-2.15h14.9A4.13 4.13 0 0131.44 23v3a.87.87 0 00.87.87h22.55a2.51 2.51 0 012.51 2.5z"/>
    <path fill="#ffffff" d="M60.25 19.68H38.57v-2.1a5.85 5.85 0 00-1.72-4.16 6 6 0 00-4.16-1.72H17.78a3.91 3.91 0 00-3.9 3.9.88.88 0 001.75 0 2.15 2.15 0 012.15-2.15h14.91a4.15 4.15 0 012.92 1.21 4.11 4.11 0 011.21 2.92v3a.88.88 0 00.88.88h22.55a2.5 2.5 0 012.5 2.5v27.71a2.5 2.5 0 01-2.5 2.5.88.88 0 100 1.75 4.26 4.26 0 004.25-4.25V23.93a4.25 4.25 0 00-4.25-4.25z"/>
</svg>