<svg id="Layer_1" data-name="Layer 1" xmlns="http://www.w3.org/2000/svg" viewBox="0 0 73 73">
    <path fill="#ffffff" d="M151.36 20.64v-.06a.64.64 0 000-.07v-.18l-.05-.06-11.4-11.4-.05-.05H112a4.33 4.33 0 00-4.33 4.33v47.02A4.33 4.33 0 00112 64.5h35a4.33 4.33 0 004.33-4.33V20.64zM140 11.31l8.59 8.59h-5.91a2.69 2.69 0 01-2.68-2.69zm7 51.55h-35a2.7 2.7 0 01-2.69-2.69V12.83a2.7 2.7 0 012.69-2.69h26.35v7.07a4.33 4.33 0 004.33 4.33h7.07v38.63a2.7 2.7 0 01-2.75 2.69z" transform="translate(-93)"/>
    <path fill="#ffffff" d="M29.85 27.94H48.2v1.31H29.85z"/>
    <path fill="#ffffff" d="M29.85 35.87H48.2v1.31H29.85z"/>
    <path fill="#ffffff" d="M29.85 43.72H48.2v1.31H29.85z"/>
    <path fill="#ffffff" d="M29.85 52.1H48.2v1.31H29.85z"/>
    <path fill="#ffffff" d="M116.54 49.32a3.43 3.43 0 103.46 3.43 3.44 3.44 0 00-3.46-3.43zm0 6.11a2.68 2.68 0 112.68-2.68 2.68 2.68 0 01-2.68 2.68z" transform="translate(-93)"/>
    <path fill="#ffffff" d="M116.54 40.94a3.43 3.43 0 103.46 3.43 3.44 3.44 0 00-3.46-3.43zm0 6.11a2.68 2.68 0 112.68-2.68 2.68 2.68 0 01-2.68 2.68z" transform="translate(-93)"/>
    <path fill="#ffffff" d="M116.54 33.09a3.44 3.44 0 103.46 3.44 3.44 3.44 0 00-3.46-3.44zm0 6.12a2.69 2.69 0 112.68-2.68 2.68 2.68 0 01-2.68 2.68z" transform="translate(-93)"/>
    <path fill="#ffffff" d="M116.54 32a3.43 3.43 0 10-3.43-3.43 3.44 3.44 0 003.43 3.43zm0-6.11a2.68 2.68 0 11-2.68 2.68 2.68 2.68 0 012.68-2.66z" transform="translate(-93)"/>
</svg>