<svg xmlns="http://www.w3.org/2000/svg" viewBox="0 0 73 73">
    <path fill="#ffffff" d="M57.34 37.26A4.85 4.85 0 0056.25 34l.21-.19a5.05 5.05 0 00.34-7.13L42.07 10.47a5.05 5.05 0 00-7.13-.34L16 27.4a5.05 5.05 0 00-.34 7.14l.53.59a4.9 4.9 0 00.28 6.24 4.82 4.82 0 00-.06 6.54l13.93 15.33a4.75 4.75 0 003.34 1.58h.23a4.78 4.78 0 003.25-1.26l18-16.34a4.79 4.79 0 00.55-6.51l.08-.07a4.83 4.83 0 001.55-3.38zm-40.2-8.56l19-17.27a3.3 3.3 0 014.66.22l14.71 16.18a3.31 3.31 0 01-.22 4.66l-19 17.27a3.31 3.31 0 01-4.66-.22L18.05 34.6a.56.56 0 00-.05-.08.24.24 0 00-.08-.06l-1-1.1a3.3 3.3 0 01-.85-2.36 3.26 3.26 0 011.07-2.3zm13.21 22a5.05 5.05 0 007.14.33L55 35.15a3.1 3.1 0 01-.39 4.2L36.33 56a3.09 3.09 0 01-2.26.82 3.14 3.14 0 01-2.18-1L17.73 40.19a3.14 3.14 0 01-.35-3.73zm24.59-6.93a3 3 0 01-1 2.13L36 62.27a3.08 3.08 0 01-4.35-.2L17.69 46.75a3.08 3.08 0 01-.05-4.06l13 14.23a4.88 4.88 0 003.36 1.6h.23a4.89 4.89 0 003.29-1.27l16.86-15.36a3.06 3.06 0 01.56 1.9z"/>
    <path fill="#ffffff" d="M23.33 31.25a.89.89 0 00.59-.23L38.45 17.7a.88.88 0 00.06-1.24.87.87 0 00-1.24-.05L22.74 29.73a.87.87 0 00-.06 1.27.89.89 0 00.65.25z"/>
</svg>