<svg version="1.1" xmlns="http://www.w3.org/2000/svg" xmlns:xlink="http://www.w3.org/1999/xlink" style="display: none;">
    <defs>

        <!-- // DOUBLE BED // -->
        <symbol id="icon__double-bed" viewBox="0 0 40 40">
            <path d="M3.7,31.7V21.4c0-0.7,0.2-1.3,0.4-1.9c0.3-0.6,0.7-1.1,1.3-1.5v-4.7c0-1.1,0.4-2.2,1.2-3
            c0.7-0.8,1.7-1.2,2.8-1.2h7.8c0.6,0,1.1,0.1,1.7,0.4c0.5,0.3,0.9,0.7,1.2,1.1c0.3-0.5,0.7-0.9,1.2-1.1c0.5-0.3,1-0.4,1.6-0.4h7.8
            c1.1,0,2.1,0.4,2.8,1.2c0.8,0.8,1.2,1.8,1.2,2.9v4.7c0.6,0.3,1,0.9,1.3,1.5c0.3,0.6,0.4,1.3,0.4,1.9v10.3h-2.1V28H5.8v3.7L3.7,31.7z
            M21,17.4h11.5v-4c0-0.5-0.2-1-0.5-1.4c-0.3-0.4-0.8-0.6-1.3-0.6h-7.9c-0.5,0-0.9,0.2-1.2,0.6c-0.3,0.4-0.5,0.9-0.5,1.4L21,17.4z
            M7.5,17.4H19v-4.1c0-0.5-0.2-1-0.5-1.4c-0.3-0.4-0.8-0.6-1.3-0.6H9.4c-0.5,0-1,0.2-1.3,0.6c-0.4,0.4-0.6,0.9-0.5,1.4L7.5,17.4z
            M5.8,25.8h28.4v-4.4c0-0.5-0.2-0.9-0.5-1.3c-0.3-0.3-0.8-0.5-1.2-0.5h-25c-0.5,0-0.9,0.2-1.2,0.5c-0.3,0.3-0.5,0.8-0.5,1.3V25.8z
            M34.2,25.8L34.2,25.8z">
            </path>
        </symbol>

        <!-- // SINGLE BED // -->
        <symbol id="icon__single-bed" viewBox="0 0 25.98 40">
            <path d="M22.85,19.5c-.3-.6-.8-1.1-1.4-1.5v-4.8c0-1.1-.4-2.2-1.3-3-.8-.8-1.9-1.2-3-1.2H8.75c-2.3,0-4.2,1.9-4.2,4.2h0v4.8c-.6,.3-1.1,.9-1.4,1.5-.3,.6-.5,1.3-.5,2v10.4h2.4v-3.7H21.05v3.7h2.2v-10.4c0-.7-.1-1.4-.4-2M6.85,13.3c0-1.1,.9-2,2-2h8.4c.5,0,1,.2,1.4,.6,.4,.4,.6,.9,.6,1.4v4.1H6.85v-4.1Zm14.2,12.7H5.05v-4.5c0-.5,.2-.9,.5-1.3s.8-.6,1.3-.5h12.4c.5,0,1,.2,1.3,.5s.5,.8,.5,1.3v4.5Z"/>
        </symbol>

        <!-- // KETTLE // -->
        <symbol id="icon__kettle" viewBox="0 0 40 40">
            <path d="M15,35.6c-0.5,0-1-0.2-1.4-0.6c-0.4-0.4-0.6-0.9-0.6-1.4V32c0-1.2,0.3-2.3,0.9-3.3
            c0.6-1.1,1.5-2,2.5-2.6L15,17.8h-3.5c-1.4,0-2.5-1.1-2.5-2.5V8.7C9,8,9.3,7.4,9.7,7c0.5-0.5,1.1-0.8,1.8-0.8h8.3V4.4h4.3v1.8h6.8
            L27.6,26c1.1,0.6,2,1.6,2.6,2.6c0.6,1,0.9,2.2,0.9,3.3v1.6c0,1.1-0.9,2-2,2c0,0,0,0,0,0H15z M14.6,15.8l-1.3-7.6h-1.8
            c-0.3,0-0.5,0.2-0.5,0.5v6.6c0,0.3,0.2,0.5,0.5,0.5H14.6z M22,31.7c0.4,0,0.7-0.1,1-0.4c0.3-0.3,0.4-0.7,0.4-1
            c0-0.8-0.6-1.4-1.4-1.4c-0.4,0-0.8,0.1-1,0.4c-0.3,0.3-0.4,0.6-0.4,1c0,0.4,0.1,0.8,0.4,1C21.3,31.6,21.6,31.7,22,31.7 M18.2,24.8
            h7.6l2.8-16.6H15.3L18.2,24.8z M15,33.6h14V32c0-1.4-0.5-2.7-1.5-3.6c-1-1-2.4-1.6-3.8-1.5h-3.3c-1.4,0-2.8,0.5-3.8,1.5
            c-1,0.9-1.6,2.3-1.6,3.6V33.6z" />
        </symbol>

        <!-- // SOFA // -->
        <symbol id="icon__sofa" viewBox="0 0 40 40">
            <path d="M8.3,33.4c-0.3,0-0.5-0.1-0.7-0.3c-0.2-0.2-0.3-0.4-0.3-0.7v-1.8H6.5c-1,0-2-0.4-2.7-1.1
	        c-0.7-0.7-1.1-1.7-1.1-2.7v-9.2c-0.1-1,0.4-2.1,1.2-2.8c0.7-0.6,1.6-1,2.6-1v-3.1c0-2,1.5-3.7,3.6-3.7c0.1,0,0.1,0,0.2,0h19.7
	        c1,0,1.9,0.4,2.6,1.1c0.7,0.7,1.1,1.7,1.1,2.7V14c1,0,1.9,0.3,2.6,1c0.8,0.7,1.2,1.7,1.1,2.7v9.2c0,2.1-1.6,3.8-3.7,3.8
	        c0,0-0.1,0-0.1,0h-0.8v1.8c0,0.5-0.4,0.9-0.9,1c0,0,0,0-0.1,0c-0.3,0-0.5-0.1-0.7-0.3c-0.2-0.2-0.3-0.4-0.3-0.7v-1.8H9.3v1.8
	        C9.3,32.9,8.9,33.4,8.3,33.4C8.4,33.4,8.4,33.4,8.3,33.4 M6.5,28.7h26.9c0.5,0,1-0.2,1.3-0.5c0.4-0.4,0.6-0.8,0.5-1.3v-9.2
	        c0-0.5-0.2-0.9-0.5-1.2c-0.3-0.3-0.8-0.5-1.2-0.5c-0.5,0-0.9,0.2-1.3,0.5c-0.3,0.3-0.5,0.8-0.5,1.2v6.5H8.2v-6.5
	        c0-0.5-0.2-0.9-0.5-1.2c-0.3-0.3-0.8-0.5-1.3-0.5c-0.5,0-0.9,0.2-1.2,0.5c-0.3,0.3-0.5,0.8-0.5,1.2v9.2c0,0.5,0.2,1,0.5,1.3
	        C5.6,28.5,6.1,28.7,6.5,28.7 M10.2,22.2h19.7v-4.5c0-0.7,0.2-1.3,0.5-1.9c0.3-0.5,0.7-0.9,1.2-1.2v-3.7c0-0.5-0.2-0.9-0.5-1.3
	        c-0.3-0.3-0.8-0.5-1.2-0.5H10.2c-0.5,0-0.9,0.2-1.2,0.5c-0.3,0.3-0.5,0.8-0.5,1.3v3.7c0.5,0.3,0.9,0.7,1.2,1.2
	        c0.3,0.6,0.5,1.2,0.5,1.9V22.2z" />
        </symbol>

        <!-- // BRIEFCASE // -->
        <symbol id="icon__briefcase" viewBox="0 0 40 40">
            <rect fill="none" width="40" height="40" />
            <path d="M14.5,10.8v-3c0-1.4,1.1-2.5,2.5-2.5c0,0,0,0,0,0h6c1.4,0,2.5,1.1,2.5,2.5c0,0,0,0,0,0v3h7.6
	        c0.7,0,1.3,0.3,1.8,0.8c0.5,0.5,0.7,1.1,0.7,1.8v18.2c0,0.7-0.3,1.3-0.7,1.8c-0.5,0.5-1.1,0.8-1.8,0.8H6.9c-0.7,0-1.3-0.3-1.8-0.8
	        c-0.5-0.5-0.7-1.1-0.7-1.8V13.3c0-0.7,0.3-1.3,0.7-1.8c0.5-0.5,1.1-0.8,1.8-0.8H14.5z M16.5,10.8h7v-3c0-0.3-0.2-0.5-0.5-0.5h-6
	        c-0.3,0-0.5,0.2-0.5,0.5V10.8z M33.6,24.3H23.5v2.5h-6.9v-2.5H6.4v7.2c0,0.1,0.1,0.2,0.1,0.3C6.6,31.9,6.7,32,6.9,32h26.2
	        c0.1,0,0.3-0.1,0.4-0.2c0.1-0.1,0.1-0.2,0.1-0.3V24.3z M18.6,24.8h2.9v-2.9h-2.9V24.8z M6.4,22.3h10.2v-2.4h6.9v2.4h10.2v-9
	        c0-0.1-0.1-0.3-0.1-0.4c-0.1-0.1-0.2-0.2-0.4-0.2H6.9c-0.1,0-0.3,0.1-0.4,0.2c-0.1,0.1-0.1,0.2-0.1,0.4V22.3z" />
        </symbol>

        <!-- // ROCKET // -->
        <symbol id="icon__rocket" viewBox="0 0 40 40">
            <path d="M8,18l4.4,1.9c0.5-1,1.1-2,1.7-3c0.6-1,1.3-1.9,2-2.9l-3-0.6c-0.1,0-0.2,0-0.2,0
	        c-0.1,0-0.2,0.1-0.2,0.1L8,18z M14,21.2l5.1,5.1c1.5-0.7,3-1.6,4.4-2.5c1.3-0.9,2.5-1.8,3.6-3c1.9-1.8,3.4-3.9,4.5-6.3
	        c1-2.4,1.6-5,1.6-7.6c-2.6,0.1-5.2,0.6-7.5,1.6c-2.3,1.1-4.5,2.6-6.2,4.4c-1.1,1.1-2.1,2.4-3,3.7C15.5,18.2,14.7,19.6,14,21.2
	        M23.3,16.9c-0.5-0.5-0.8-1.2-0.8-1.9c0-0.7,0.3-1.4,0.8-1.9c1-1,2.7-1.1,3.7-0.1c0.5,0.5,0.8,1.2,0.8,2c0,0.7-0.3,1.4-0.8,1.9
	        C26.1,18,24.4,18,23.3,16.9C23.3,16.9,23.3,16.9,23.3,16.9 M22.2,32.2l4.5-4.5c0.1-0.1,0.1-0.1,0.1-0.2c0-0.1,0-0.2,0-0.2l-0.6-3
	        c-0.9,0.7-1.9,1.3-2.8,1.9c-1,0.6-2,1.2-3,1.7L22.2,32.2z M35.2,5.1c0.3,3.1-0.1,6.3-1.3,9.2c-1.2,3-3,5.7-5.3,8
	        c-0.1,0.1-0.2,0.2-0.3,0.3c-0.1,0.1-0.2,0.2-0.2,0.3l0.8,4c0.1,0.4,0.1,0.8-0.1,1.2c-0.1,0.4-0.3,0.7-0.6,1l-6.5,6.5l-3.1-7.3
	        l-6.5-6.5l-7.3-3.2l6.6-6.5c0.3-0.3,0.6-0.5,1-0.6c0.4-0.1,0.8-0.2,1.2-0.1l4.1,0.8c0.1-0.1,0.2-0.2,0.2-0.3
	        c0.1-0.1,0.2-0.2,0.3-0.3c2.3-2.3,5-4.1,8-5.3C28.9,5.3,32,4.8,35.2,5.1 M7.5,26.8c0.8-0.8,1.8-1.2,2.9-1.2c1.1,0,2.2,0.4,3,1.2
	        c0.8,0.8,1.2,1.8,1.2,2.9c0,1.1-0.4,2.2-1.2,2.9c-0.9,0.8-1.9,1.3-3,1.6c-1.8,0.5-3.7,0.9-5.5,1c0.2-1.9,0.6-3.7,1.1-5.5
	        C6.1,28.7,6.7,27.6,7.5,26.8 M8.9,28.2c-0.5,0.5-0.8,1.1-1,1.8c-0.3,0.9-0.5,1.9-0.6,2.9c1-0.1,1.9-0.4,2.9-0.7
	        c0.7-0.2,1.3-0.5,1.8-1c0.8-0.8,0.9-2.2,0-3c-0.4-0.4-1-0.6-1.6-0.6C9.8,27.6,9.3,27.8,8.9,28.2" />
        </symbol>

        <!-- // WASHING MACHINE // -->
        <symbol id="icon__washing-machine" viewBox="0 0 40 40">
            <path d="M10.2,35.6c-0.7,0-1.3-0.3-1.8-0.7c-0.5-0.5-0.8-1.1-0.8-1.8V6.9c0-0.7,0.3-1.3,0.8-1.8
	        c0.5-0.5,1.1-0.7,1.8-0.7h19.7c0.7,0,1.3,0.3,1.8,0.7c0.5,0.5,0.8,1.1,0.8,1.8v26.2c0,0.7-0.3,1.3-0.8,1.8c-0.5,0.5-1.1,0.7-1.8,0.7
	        L10.2,35.6z M10.2,33.6h19.7c0.1,0,0.2-0.1,0.3-0.1c0.1-0.1,0.2-0.2,0.2-0.4V6.9c0-0.1-0.1-0.3-0.2-0.4c-0.1-0.1-0.2-0.1-0.3-0.1
	        H10.2c-0.1,0-0.2,0.1-0.3,0.1C9.7,6.6,9.7,6.7,9.7,6.9v26.2c0,0.1,0.1,0.3,0.2,0.4C9.9,33.6,10,33.6,10.2,33.6 M20,30.9
	        c4.1,0,7.5-3.3,7.5-7.5c0-4.1-3.3-7.4-7.3-7.5c0,0-0.1,0-0.1,0c-4.1,0-7.5,3.3-7.5,7.5C12.5,27.6,15.9,30.9,20,30.9 M20,28.4
	        c-0.7,0-1.3-0.1-1.9-0.4c-0.6-0.2-1.1-0.6-1.6-1l7-7c0.5,0.4,0.8,1,1.1,1.6c0.3,0.6,0.4,1.3,0.4,2c0,1.3-0.5,2.6-1.4,3.5
	        C22.6,27.9,21.3,28.4,20,28.4 M13.1,11.1c0.8,0,1.4-0.6,1.4-1.4c0-0.4-0.1-0.7-0.4-1c-0.3-0.3-0.6-0.4-1-0.4c-0.4,0-0.7,0.1-1,0.4
	        c-0.3,0.3-0.4,0.6-0.4,1c0,0.4,0.2,0.7,0.4,1C12.3,11,12.7,11.1,13.1,11.1 M18.3,11.1c0.8,0,1.4-0.6,1.4-1.4c0-0.4-0.1-0.7-0.4-1
	        c-0.3-0.3-0.6-0.4-1-0.4c-0.4,0-0.7,0.1-1,0.4c-0.3,0.3-0.4,0.6-0.4,1C16.9,10.5,17.5,11.1,18.3,11.1 M9.7,33.6L9.7,33.6z" />
        </symbol>

        <!-- // COOKING STATION // -->
        <symbol id="icon__bbq" fill="none" stroke-width="1.5" viewBox="0 0 24 24">
            <path d="M8.5 14.5L5 22" stroke="currentColor" stroke-linecap="round" stroke-linejoin="round" />
            <path d="M8 6C8 6 9 4.9387 9 4C9 2.66667 8 2 8 2" stroke="currentColor" stroke-linecap="round" stroke-linejoin="round" />
            <path d="M12 6C12 6 13 4.9387 13 4C13 2.66667 12 2 12 2" stroke="currentColor" stroke-linecap="round" stroke-linejoin="round" />
            <path d="M16 6C16 6 17 4.9387 17 4C17 2.66667 16 2 16 2" stroke="currentColor" stroke-linecap="round" stroke-linejoin="round" />
            <path d="M16.5 17.5L7.5 17.5" stroke="currentColor" stroke-linejoin="round" />
            <path d="M15.5 14.5L17.6 19" stroke="currentColor" stroke-linecap="round" stroke-linejoin="round" />
            <path d="M18.5 22C19.3284 22 20 21.3284 20 20.5C20 19.6716 19.3284 19 18.5 19C17.6716 19 17 19.6716 17 20.5C17 21.3284 17.6716 22 18.5 22Z" stroke="currentColor" stroke-linecap="round" stroke-linejoin="round" />
            <path d="M12 15C15.664 15 18.6705 12.185 18.9747 8.59974C19.0027 8.26956 18.7314 8 18.4 8H5.6C5.26863 8 4.99732 8.26956 5.02533 8.59974C5.32955 12.185 8.33603 15 12 15Z" stroke="currentColor" />
        </symbol>

        <!-- // TENNIS RACKET // -->
        <symbol id="icon__tennis-racket" viewBox="0 0 32 32" fill="none" stroke="#000000" stroke-width="2" stroke-miterlimit="10" stroke-linejoin="round" stroke-linecap="round">
            <ellipse cx="20" cy="12" rx="9.8" ry="8.2" transform="matrix(0.7071 -0.7071 0.7071 0.7071 -2.6607 17.6431)" />
            <path d="M11,12.7l0,2.5c0,2-0.8,3.9-2.2,5.3l0,0l2.9,2.9l0,0c1.4-1.4,3.3-2.2,5.3-2.2l2.5,0" />
            <path d="M11.4,23.5l-4.9,4.9c-0.8,0.8-2.1,0.8-2.9,0l0,0c-0.8-0.8-0.8-2.1,0-2.9l4.9-4.9" />
            <line x1="18.9" x2="24.7" y1="7.3" y2="13.1" />
            <line x1="14.5" x2="22.5" y1="14.6" y2="6.6" />
            <line x1="17.4" x2="25.4" y1="17.5" y2="9.5" />
            <line x1="15.2" x2="21.1" y1="10.9" y2="16.8" />
        </symbol>

        <!-- // GARDENS // -->
        <symbol id="icon__gardens" viewBox="0 0 32 32" fill="none" stroke="#000000" stroke-width="2" stroke-miterlimit="10" stroke-linejoin="round" stroke-linecap="round">
            <path d="M22,13v-3c0-3.3-2.7-6-6-6h0c-3.3,0-6,2.7-6,6v3h0c-2.8,0-5,2.2-5,5v0c0,2.8,2.2,5,5,5h12c2.8,0,5-2.2,5-5v0  C27,15.2,24.8,13,22,13L22,13z" />
            <path d="M16,30v-8.7c0-1.4-0.7-2.8-1.9-3.6l0,0c-0.7-0.5-1.5-0.7-2.4-0.7H10" />
            <line x1="16" x2="16" y1="9" y2="19" />
            <path d="M16,20h0.4c2.3,0,4.4-1.1,5.6-3l0,0" />
        </symbol>

        <!-- // CAR // -->
        <symbol id="icon__car" viewBox="0 0 40 40">
            <path d="M30.4,10c-0.3-0.9-1.2-1.5-2.1-1.5H11.7c-1,0-1.8,0.6-2.1,1.5l-3.1,9v12c0,0.8,0.7,1.5,1.5,1.5
            h1.5c0.8,0,1.5-0.7,1.5-1.5v-1.5h18V31c0,0.8,0.7,1.5,1.5,1.5H32c0.8,0,1.5-0.7,1.5-1.5V19L30.4,10z M12.3,11.5h15.4l1.6,4.7H10.6
            L12.3,11.5z M30.5,26.5h-21V19h21V26.5z"></path>
            <circle cx="13.2" cy="22.8" r="2.3"></circle>
            <circle cx="26.8" cy="22.8" r="2.3"></circle>
        </symbol>

        <!-- // GRASS // -->
        <symbol id="icon__grass" viewBox="0 0 32 32">
            <path d="M30.286,25.036c-2.265-0.954-3.549-2.257-3.923-3.981c-0.96-4.417,4.313-10.117,4.367-10.174   c0.249-0.266,0.333-0.647,0.22-0.994c-0.113-0.347-0.407-0.604-0.765-0.672c-0.508-0.096-1.016-0.144-1.509-0.144   c-3.786,0-6.317,2.733-7.894,5.431C19.461,4.86,9.442,1.103,9.323,1.06C8.914,0.912,8.451,1.047,8.186,1.395   C7.921,1.744,7.914,2.224,8.167,2.581c4.699,6.592,4.922,12.386,4.649,15.215c-0.816-0.97-2.184-2.661-4.464-5.607   c-0.455-0.677-0.992-1.375-1.597-2.073C6.402,9.708,5.788,9.654,5.369,9.995c-0.419,0.34-0.492,0.953-0.165,1.382   c0,0,0.629,0.826,1.523,1.981c1.593,2.397,2.064,4.562,1.4,6.436c-1.285,3.623-6.371,5.235-6.422,5.251   c-0.473,0.146-0.768,0.616-0.694,1.105C1.086,26.638,1.505,27,2,27h28c0.007-0.001,0.013,0,0.02,0c0.552,0,1-0.448,1-1   C31.02,25.54,30.709,25.152,30.286,25.036z M6.25,25c1.512-1.036,3.044-2.518,3.76-4.529c0.279-0.784,0.417-1.594,0.416-2.427   c2.092,2.567,2.395,2.699,2.636,2.804c0.259,0.113,0.556,0.11,0.813-0.007c0.258-0.118,0.454-0.339,0.539-0.61   c0.098-0.313,2.111-7.024-2.659-15.702c3.501,2.217,8.482,6.927,6.855,15.226c-0.104,0.532,0.234,1.05,0.764,1.168   c0.527,0.115,1.056-0.208,1.188-0.733c0.021-0.087,2.147-8.343,7.375-9.068c-1.713,2.257-4.362,6.507-3.529,10.354   c0.295,1.362,0.984,2.54,2.06,3.525H6.25z" />
            <path d="M30,29h-8c-0.552,0-1,0.448-1,1s0.448,1,1,1h8c0.552,0,1-0.448,1-1S30.552,29,30,29z" />
            <path d="M19,29h-2c-0.552,0-1,0.448-1,1s0.448,1,1,1h2c0.552,0,1-0.448,1-1S19.552,29,19,29z" />
            <path d="M14,29H2c-0.552,0-1,0.448-1,1s0.448,1,1,1h12c0.552,0,1-0.448,1-1S14.552,29,14,29z" />
        </symbol>

        <!-- // KNIFE AND FORK // -->
        <symbol id="icon__knife-and-fork" viewBox="0 0 32 32" fill="none" stroke="#000000" stroke-width="2" stroke-miterlimit="10" stroke-linejoin="round" stroke-linecap="round">
            <path d="M6.5,13.5c-2.6-2.6-2.6-6.7,0-9.3l11.1,11.1l3.7,3.7l5.7,5.7c1,1,1,2.5,0,3.5l0,0c-1,1-2.8,1-3.7-0.2l-4.1-5.1  c-1-1.3-2.8-1.7-4.4-1.1l0,0L6.5,13.5z" />
            <line x1="21.3" x2="26.7" y1="12.1" y2="6.7" />
            <path d="M19.1,16.8c0.4-0.1,0.7-0.1,1.1-0.2c1.3-0.1,2.8-0.8,4.3-2.3l4.9-4.9" />
            <path d="M12.3,19.3L5.3,25c-1.1,0.8-1.2,2.4-0.2,3.3c1,1,2.5,0.8,3.3-0.2l5.7-7.1" />
            <path d="M24,4L19,8.9c-1.5,1.5-2.3,3-2.3,4.3c0,0.4-0.1,0.7-0.2,1.1" />
        </symbol>

        <!-- // CHEF HAT // -->
        <symbol id="icon__chef-hat" viewBox="0 0 32 32" fill="none" stroke="#000000" stroke-width="2" stroke-miterlimit="10" stroke-linejoin="round" stroke-linecap="round">
            <path d="M22.4,8.1C22.7,8,23.1,8,23.5,8c3,0,5.5,2.5,5.5,5.5S26.5,19,23.5,19l0.5,9H8l0.5-9c-3,0-5.5-2.5-5.5-5.5  S5.5,8,8.5,8c0.4,0,0.8,0,1.1,0.1" />
            <path d="M23,11c0-3.9-3.1-7-7-7s-7,3.1-7,7" />
            <line x1="16" x2="16" y1="21" y2="24" />
            <line x1="12.5" x2="12" y1="21" y2="23.7" />
            <line x1="19.5" x2="20" y1="21" y2="23.7" />
        </symbol>

        <!-- // HOVER // -->
        <symbol id="icon__hover" viewBox="0 0 32 32" fill="none" stroke="#000000" stroke-width="2" stroke-miterlimit="10" stroke-linejoin="round" stroke-linecap="round">
            <circle cx="5" cy="26" r="4" />
            <path d="M3.2,22l0.4-2.4C4,17.5,5.9,16,8.1,16h3.3c1.2,0,2.4,0.5,3.2,1.3l3.9,3.7c3.1,3,0.9,8-3.5,8H7.6" />
            <line x1="25" x2="31" y1="29" y2="29" />
            <path d="M17,19L17,19c2.3-2.3,2.4-5.9,0.3-8.3l-1.1-1.3c-1.2-1.3-1-3.4,0.4-4.5l0,0c1.4-1.1,3.3-0.9,4.4,0.5l0,0  c3.9,4.9,6,11,6,17.2V29" />
        </symbol>

        <!-- // BELL // -->
        <symbol id="icon__bell" viewBox="0 0 32 32">
            <path d="M12,27   c0,2.209,1.791,4,4,4s4-1.791,4-4" fill="none" stroke="#000000" stroke-linejoin="round" stroke-miterlimit="10" stroke-width="2" />
            <path d="M16,3L16,3   c-4.971,0-9,4.029-9,9v9l-2,3v3h22v-3l-2-3v-9C25,7.029,20.971,3,16,3z" fill="none" stroke="#000000" stroke-linejoin="round" stroke-miterlimit="10" stroke-width="2" />
            <line fill="none" stroke="#000000" stroke-linejoin="round" stroke-miterlimit="10" stroke-width="2" x1="7" x2="18" y1="21" y2="21" />
            <line fill="none" stroke="#000000" stroke-linejoin="round" stroke-miterlimit="10" stroke-width="2" x1="20" x2="22" y1="21" y2="21" />
            <path d="M16,0L16,0c-1.105,0-2,0.895-2,2v2h4V2C18,0.895,17.105,0,16,0z" />
        </symbol>

        <!-- // FLOWER // -->
        <symbol id="icon__flower" viewBox="0 0 24 24">
            <path d="M14,7c0-1.1-0.9-2-2-2s-2,0.9-2,2s0.9,2,2,2S14,8.1,14,7z M11,7c0-0.6,0.4-1,1-1s1,0.4,1,1s-0.4,1-1,1S11,7.6,11,7z" />
            <path d="M13,16.7v-3c0.6-0.3,1-1,1-1.7v-0.2l0.1,0.1c0.8,0.8,2,0.8,2.8,0c0.8-0.8,0.8-2,0-2.8L16.8,9H17c1.1,0,2-0.9,2-2   s-0.9-2-2-2h-0.2l0.1-0.1c0.8-0.8,0.8-2,0-2.8c-0.8-0.8-2-0.8-2.8,0L14,2.2V2c0-1.1-0.9-2-2-2c-1.1,0-2,0.9-2,2v0.2L9.9,2.1   c-0.8-0.8-2-0.8-2.8,0c-0.8,0.8-0.8,2,0,2.8L7.2,5H7C5.9,5,5,5.9,5,7s0.9,2,2,2h0.2L7,9.1c-0.8,0.8-0.8,2,0,2.8s2,0.8,2.8,0   l0.1-0.1V12c0,0.7,0.4,1.4,1,1.7v3C9.9,15.1,8.1,14,6,14H5v4c0,3.3,2.7,6,6,6h2c3.3,0,6-2.7,6-6v-4h-1C15.9,14,14.1,15.1,13,16.7z    M10,10.4l-0.8,0.8c-0.4,0.4-1,0.4-1.4,0s-0.4-1,0-1.4L8.6,9C8.4,8.7,8.2,8.4,8.1,8H7C6.4,8,6,7.6,6,7s0.4-1,1-1h1.1   c0.1-0.4,0.2-0.7,0.4-1L7.8,4.2c-0.4-0.4-0.4-1,0-1.4c0.4-0.4,1-0.4,1.4,0L10,3.6c0.3-0.2,0.7-0.3,1-0.4V2c0-0.6,0.4-1,1-1   c0.6,0,1,0.4,1,1v1.1c0.4,0.1,0.7,0.2,1,0.4l0.8-0.8c0.4-0.4,1-0.4,1.4,0s0.4,1,0,1.4L15.4,5c0.2,0.3,0.3,0.7,0.4,1H17   c0.6,0,1,0.4,1,1s-0.4,1-1,1h-1.1c-0.1,0.4-0.2,0.7-0.4,1l0.8,0.8c0.4,0.4,0.4,1,0,1.4c-0.4,0.4-1,0.4-1.4,0L14,10.4   c-0.3,0.2-0.7,0.3-1,0.4V12c0,0.6-0.4,1-1,1s-1-0.4-1-1v-1.1C10.6,10.8,10.3,10.6,10,10.4z M11,23c-2.8,0-5-2.2-5-5v-3   c2.8,0,5,2.2,5,5V23z M18,18c0,2.8-2.2,5-5,5v-3c0-2.8,2.2-5,5-5V18z" />
        </symbol>

        <!-- // POOL // -->
        <symbol id="icon__pool" fill="none" viewBox="0 0 15 15">
            <path d="M1 12.6C1.65 13.3333 2.65455 14 3.95455 14C6.90909 14 7.5 12 10.4545 12C11.8136 12 13.0545 12.7333 14 13.4667M2.5 12V3.72724C2.5 1.94542 3.85458 0.5 5.63639 0.5M9.5 10V3.63639C9.5 1.85458 10.9 0.5 12.6818 0.5M2.5 4.5H9.5M2.5 8.5H9.5" stroke="black" stroke-linejoin="round" stroke-miterlimit="10" />
        </symbol>

        <!-- // SOAP DISPENSER // -->
        <symbol id="icon__soap-dispenser" viewBox="0 0 32 32" fill="none" stroke="#000000" stroke-width="2" stroke-miterlimit="10" stroke-linejoin="round" stroke-linecap="round">
            <path d="M20.7,12h-9.5c-0.5,0-0.8,0.3-1,0.7L7.2,24.2C6.3,27.6,8.8,31,12.3,31h7.3c3.5,0,6.1-3.3,5.2-6.7l-3.1-11.5  C21.6,12.3,21.2,12,20.7,12z" />
            <path d="M19,22.1c0,1.6-1.3,2.9-3,2.9s-3-1.3-3-2.9c0-2.2,3-5.1,3-5.1S19,19.9,19,22.1z" />
            <rect height="4" width="6" x="13" y="8" />
            <line x1="16" x2="16" y1="8" y2="4" />
            <path d="M18,1h-4.5C12.7,1,12,1.7,12,2.5v0C12,3.3,12.7,4,13.5,4h4.1c1.6,0,3.1,0.5,4.5,1.4L23,6l2-1l-0.6-0.8  C22.9,2.2,20.5,1,18,1z" />
        </symbol>

        <!-- // FOLDED TOWELS // -->
        <symbol id="icon__folded-towels" viewBox="0 0 32 32" fill="none" stroke="#000000" stroke-width="2" stroke-miterlimit="10" stroke-linejoin="round" stroke-linecap="round">
            <path d="M25,20H5c-1.1,0-2,0.9-2,2s0.9,2,2,2c-1.1,0-2,0.9-2,2s0.9,2,2,2h20c2.2,0,4-1.8,4-4S27.2,20,25,20z" />
            <polyline points="25,23 25,24 5,24 " />
            <path d="M25,4H5C3.9,4,3,4.9,3,6s0.9,2,2,2c-1.1,0-2,0.9-2,2s0.9,2,2,2h20c2.2,0,4-1.8,4-4S27.2,4,25,4z" />
            <polyline points="25,7 25,8 5,8 " />
            <path d="M7,12h20c1.1,0,2,0.9,2,2s-0.9,2-2,2c1.1,0,2,0.9,2,2s-0.9,2-2,2H7c-2.2,0-4-1.8-4-4S4.8,12,7,12z" />
            <polyline points="7,15 7,16 27,16 " />
        </symbol>

        <!-- // HANGING TOWEL // -->
        <symbol id="icon__hanging-towel" viewBox="0 0 32 32" fill="none" stroke="#000000" stroke-width="2" stroke-miterlimit="10" stroke-linejoin="round" stroke-linecap="round">
            <path d="M25,2H7.2C5.4,2,4,3.4,4,5.2V30h18V20" />
            <path d="M22,20h6V5c0-1.7-1.3-3-3-3h0c-1.7,0-3,1.3-3,3V20z" />
            <line x1="4" x2="22" y1="27" y2="27" />
            <line x1="4" x2="22" y1="24" y2="24" />
        </symbol>

    </defs>
</svg>