<?xml version="1.0" standalone="no"?>
<!DOCTYPE svg PUBLIC "-//W3C//DTD SVG 20010904//EN"
 "http://www.w3.org/TR/2001/REC-SVG-20010904/DTD/svg10.dtd">
<svg version="1.0" xmlns="http://www.w3.org/2000/svg"
 width="700.000000pt" height="700.000000pt" viewBox="0 0 700.000000 700.000000"
 preserveAspectRatio="xMidYMid meet">
<metadata>
Created by potrace 1.14, written by Peter Selinger 2001-2017
</metadata>
<g transform="translate(0.000000,700.000000) scale(0.100000,-0.100000)"
fill="#000000" stroke="none">
<path d="M0 3500 l0 -3500 3500 0 3500 0 0 3500 0 3500 -3500 0 -3500 0 0
-3500z m1022 2688 c138 -52 258 -158 323 -288 37 -74 211 -465 245 -550 9 -25
115 -270 235 -545 119 -275 272 -628 340 -785 225 -522 425 -983 434 -998 13
-24 22 -4 913 2031 l511 1167 133 0 c73 0 135 -3 137 -7 3 -7 -134 -325 -596
-1377 -48 -109 -87 -203 -87 -209 0 -6 21 9 47 34 252 242 656 424 1052 474
185 24 534 17 706 -14 354 -63 681 -207 930 -411 128 -105 346 -352 369 -420
3 -9 -21 -44 -59 -85 l-65 -70 -111 118 c-452 478 -918 694 -1397 648 -145
-14 -203 -28 -337 -82 -341 -136 -628 -422 -814 -809 -158 -331 -221 -627
-222 -1047 -1 -280 27 -465 107 -708 97 -295 240 -536 444 -748 276 -287 582
-435 935 -453 230 -11 434 35 666 152 223 111 364 218 577 439 l139 144 71
-72 71 -72 -56 -80 c-84 -121 -336 -367 -458 -447 -246 -161 -524 -265 -841
-313 -149 -23 -544 -23 -699 0 -716 105 -1278 569 -1532 1265 -111 304 -159
608 -152 958 2 94 1 168 -2 164 -3 -4 -40 -86 -82 -182 -169 -388 -440 -1006
-450 -1025 -9 -18 -12 -16 -27 20 -111 255 -940 2169 -1060 2445 -87 201 -253
586 -370 855 -117 270 -234 534 -262 587 -74 145 -154 208 -338 269 -52 18
-99 34 -105 38 -26 15 74 20 360 17 303 -3 312 -4 377 -28z"/>
</g>
</svg>
